# xmcd
#
# Track frame offsets:
#	150
#	17085
#	30393
#	44883
#	64418
#	78918
#	91880
#	109798
#	124313
#	138003
#	152058
#	163735
#	181433
#	198613
#	208443
#	223873
#	236940
#	252180
#	268160
#	283200
#
# Disc length: 3987 seconds
# Revision: 0
# Processed by: cddbd v1.5.2PL0 Copyright (c) Steve Scherf et al.
# Submitted via: dBpowerAMP V12.0
#
DISCID=3a0f9114
DTITLE=Various Artist - TM Century GoldDisc 2026N
DYEAR=1990
DGENRE=Country
TTITLE0=Joe Diffie - If You Want Me To
TTITLE1=Ray Kennedy - What A Way To Go
TTITLE2=Marty Stuart - Little Things
TTITLE3=Steve Wariner - There For Awhile
TTITLE4=Pam Tillis - Don't Tell Me What To Do
TTITLE5=Conway Twitty - I Couldn't See You Leavin'
TTITLE6=Clint Black - Loving Blind
TTITLE7=Alan Jackson - I'd Love You All Over Again
TTITLE8=Vern Gosdin - Is It Raining At Your House
TTITLE9=Patty Loveless - I'm That Kind Of Girl
TTITLE10=Garth Brooks - Two Of A Kind, Workin' On A Full House
TTITLE11=Restless Heart - Long Lost Friend
TTITLE12=Shenandoah - I Got You
TTITLE13=Randy Travis - Heroes And Friends
TTITLE14=Holly Dunn - Heart Full Of Love
TTITLE15=Don Williams - True Love
TTITLE16=The Forester Sisters - Men
TTITLE17=Billy Dean - Only Here For A Little While
TTITLE18=Alabama - Down Home
TTITLE19=Baillie And The Boys - Treat Me Like A Stranger
EXTD=
EXTT0=
EXTT1=
EXTT2=
EXTT3=
EXTT4=
EXTT5=
EXTT6=
EXTT7=
EXTT8=
EXTT9=
EXTT10=
EXTT11=
EXTT12=
EXTT13=
EXTT14=
EXTT15=
EXTT16=
EXTT17=
EXTT18=
EXTT19=
PLAYORDER=
